<svg xmlns="http://www.w3.org/2000/svg" width="190.282" height="30" viewBox="0 0 190.282 30"><g transform="translate(-7776 539.311)"><path d="M10.957,22.913l1.061-5.651.185-.986h3.2l.185.986,2.045,10.89h-1.6l-1.246-6.637L13.8,16.276l-.984,5.239-1.061,5.651-.185.986h-3.2l-.185-.986L7.128,21.516l-.984-5.239L5.16,21.516,3.913,28.153h-1.6l2.045-10.89.185-.986h3.2l.185.986,1.061,5.651.984,5.239ZM9.649,15.95,9.471,15l.179-.949.324-1.723.324,1.723.178.949-.178.949-.324,1.724ZM4.361,12.739,2.316,1.849h1.6L5.16,8.486l.984,5.239h-1.6ZM7.128,8.486,8.189,2.835l.185-.986h1.6L8.989,7.088,7.927,12.739l-.185.986h-1.6ZM11.57,1.849l.185.986,1.061,5.651.984,5.239H12.2l-.185-.986L10.957,7.088,9.973,1.849Zm2.57,10.072.645-3.435,1.246-6.637h1.6l-2.045,10.89-.185.986H13.8ZM14.411,0l-.286,1.522L13.8,3.247l-.324-1.724L13.191,0H6.754L6.468,1.523,6.144,3.247,5.82,1.523,5.534,0H0L.408,2.175,2.639,14.052,2.818,15l-.178.949L.408,27.827,0,30H5.534l.286-1.522.324-1.724.324,1.724L6.754,30h6.438l.286-1.522.324-1.724.324,1.724L14.411,30h5.535l-.409-2.174L17.306,15.95,17.128,15l.179-.949L19.537,2.175,19.946,0Z" transform="translate(7776 -539.312)" fill="#fff"/><path d="M3.532-54.985H7.555L8.933-67.992h.055l1.378,13.007h3.775L16.1-74.274H13.479l-1.35,14.825h-.055L10.641-74.274H7.334L5.9-59.449H5.846L4.5-74.274H1.575Zm14.109,0h8.267v-2.756H20.672v-5.925h4.161v-2.756H20.672v-5.1h5.236v-2.756H17.64Zm9.2,0h2.811l.551-3.775h3.445v-.055l.551,3.83h3.031L34.092-74.274H29.986Zm3.72-6.393,1.323-9.535h.055l1.35,9.535ZM39.8-54.985h3.031V-71.519H46v-2.756H36.627v2.756H39.8Zm7.661,0h3.031v-8.68h3.252v8.68H56.77V-74.274H53.739v7.854H50.488v-7.854H47.456Zm11.574,0H67.3v-2.756H62.061v-5.925h4.161v-2.756H62.061v-5.1H67.3v-2.756H59.03Zm10,0h3.031v-8.267h1.047c1.378,0,1.9.579,1.9,2.37v3.527a5.932,5.932,0,0,0,.276,2.37h3.086a5.681,5.681,0,0,1-.331-2.342v-3.389c0-2.177-.5-3.61-2.012-4.078v-.055c1.35-.551,1.984-1.819,1.984-3.8v-1.185c0-2.976-1.35-4.437-4.492-4.437H69.033Zm3.031-11.023v-5.511h1.378c1.075,0,1.543.606,1.543,1.984v1.488c0,1.543-.689,2.039-1.819,2.039ZM84.547-54.985h2.645v-14.6h.055l2.2,14.6h2.535l2.2-14.6h.055v14.6h2.866V-74.274H92.787L90.858-60.469H90.8L88.874-74.274H84.547Zm19.207.276c2.976,0,4.6-1.764,4.6-4.85V-69.7c0-3.086-1.626-4.85-4.6-4.85s-4.6,1.764-4.6,4.85v10.141C99.152-56.473,100.778-54.709,103.754-54.709Zm0-2.756c-.964,0-1.571-.524-1.571-1.9V-69.893c0-1.378.606-1.9,1.571-1.9s1.571.524,1.571,1.9v10.527C105.325-57.989,104.718-57.465,103.754-57.465Zm6.641,2.48h2.7V-69.066h.055l3.637,14.081H119.9V-74.274h-2.7v11.546h-.055L114.2-74.274h-3.8Zm15.707.276c2.976,0,4.574-1.764,4.574-4.905,0-2.4-.8-3.941-3.334-6.173-1.984-1.736-2.618-2.756-2.618-4.161,0-1.323.551-1.846,1.516-1.846s1.516.524,1.516,1.9v.992h2.866v-.8c0-3.086-1.46-4.85-4.409-4.85s-4.519,1.764-4.519,4.795c0,2.2.827,3.775,3.362,6.007,1.984,1.736,2.59,2.756,2.59,4.354,0,1.433-.606,1.929-1.571,1.929s-1.571-.5-1.571-1.874v-1.323h-2.866v1.1C121.638-56.473,123.126-54.709,126.1-54.709Zm8.68-.276h3.031V-71.519h3.169v-2.756h-9.369v2.756h3.169Zm7.661,0h8.267v-2.756h-5.236v-5.925h4.161v-2.756h-4.161v-5.1h5.236v-2.756h-8.267Zm10,0h3.031v-8.267h1.047c1.378,0,1.9.579,1.9,2.37v3.527a5.932,5.932,0,0,0,.276,2.37h3.086a5.681,5.681,0,0,1-.331-2.342v-3.389c0-2.177-.5-3.61-2.012-4.078v-.055c1.35-.551,1.984-1.819,1.984-3.8v-1.185c0-2.976-1.35-4.437-4.492-4.437h-4.492Zm3.031-11.023v-5.511h1.378c1.075,0,1.543.606,1.543,1.984v1.488c0,1.543-.689,2.039-1.819,2.039Z" transform="translate(7804.494 -459.575)" fill="#fff"/></g></svg>